<?xml version="1.0" encoding="UTF-8" standalone="no"?>
<!DOCTYPE svg PUBLIC "-//W3C//DTD SVG 1.1//EN" "http://www.w3.org/Graphics/SVG/1.1/DTD/svg11.dtd">
<svg xmlns="http://www.w3.org/2000/svg" version="1.1" viewBox="0.00 0.00 1024.00 1024.00">
<g stroke-width="2.00" fill="none" stroke-linecap="butt">
<path stroke="#83715a" vector-effect="non-scaling-stroke" d="
  M 610.97 365.54
  L 610.54 452.93
  Q 610.53 453.64 609.82 453.64
  L 560.97 453.84
  A 0.64 0.64 0.0 0 0 560.34 454.54
  C 562.75 480.08 583.32 498.47 607.57 503.18
  C 625.41 506.65 644.87 501.53 658.73 490.23
  C 666.74 483.70 675.13 472.71 677.16 462.00
  Q 677.92 457.97 678.24 454.12
  A 0.55 0.55 0.0 0 0 677.69 453.52
  L 627.75 453.49
  A 0.49 0.48 90.0 0 1 627.27 453.00
  L 626.61 367.50
  Q 626.60 365.95 627.20 367.38
  Q 644.05 407.37 659.09 445.56
  A 0.75 0.74 -11.3 0 0 659.80 446.03
  L 675.05 445.56
  Q 675.76 445.54 675.51 444.88
  Q 671.75 435.02 667.56 424.45
  Q 644.40 366.06 623.15 314.92
  A 1.37 1.37 0.0 0 0 622.04 314.09
  Q 618.13 313.70 614.26 312.01
  C 596.64 304.30 575.47 304.35 559.41 315.68
  Q 555.22 318.64 550.85 322.08
  Q 545.87 326.00 538.52 324.54
  C 534.81 323.81 530.50 321.56 529.30 317.65
  Q 528.48 315.01 527.98 312.27
  C 527.09 307.52 520.98 305.41 517.17 303.74
  A 0.96 0.96 0.0 0 1 517.06 302.03
  Q 520.46 300.00 524.84 300.03
  A 0.81 0.81 0.0 0 0 525.50 298.74
  Q 518.87 289.68 513.49 280.06
  Q 513.20 279.53 512.87 280.04
  L 500.38 299.64
  A 0.42 0.41 -72.0 0 0 500.70 300.28
  Q 504.83 300.52 508.57 301.65
  A 0.69 0.69 0.0 0 1 508.77 302.88
  Q 504.66 305.76 500.19 307.71
  A 3.01 2.99 81.2 0 0 498.42 310.15
  C 498.19 312.37 498.34 314.82 497.42 316.90
  Q 494.88 322.65 490.44 324.12
  Q 482.88 326.61 475.81 322.02
  C 471.90 319.48 468.60 316.07 464.43 313.65
  Q 449.67 305.07 431.45 306.96
  C 422.66 307.88 414.02 311.16 405.50 314.21
  Q 403.76 314.84 403.15 316.42
  C 386.62 359.87 368.66 402.63 351.13 445.18
  A 0.44 0.44 0.0 0 0 351.53 445.79
  L 367.68 445.79
  A 0.59 0.59 0.0 0 0 368.23 445.42
  Q 384.93 406.55 400.33 365.90
  Q 400.78 364.72 400.78 365.99
  L 400.42 453.08
  A 0.50 0.50 0.0 0 1 399.92 453.58
  L 348.29 453.82
  A 0.65 0.65 0.0 0 0 347.65 454.52
  C 349.74 481.04 372.86 499.94 397.74 503.50
  Q 418.17 506.43 437.01 496.49
  C 452.69 488.23 464.22 472.01 465.79 454.31
  A 0.63 0.62 -87.5 0 0 465.17 453.63
  L 417.34 453.57
  A 0.44 0.43 90.0 0 1 416.91 453.13
  Q 417.24 409.66 416.08 366.82
  Q 416.05 365.56 416.56 366.71
  C 417.79 369.41 418.49 372.35 419.61 375.04
  C 428.60 396.56 438.67 420.90 448.00 444.32
  A 2.69 2.68 -10.7 0 0 450.50 446.02
  L 464.71 446.02
  A 0.56 0.56 0.0 0 0 465.23 445.26
  C 459.41 429.63 453.50 414.59 446.72 398.85
  Q 431.83 364.30 417.71 327.45
  Q 417.47 326.83 418.11 326.63
  C 431.30 322.38 445.30 322.13 457.54 328.87
  C 461.68 331.14 465.13 334.44 468.78 337.38
  Q 470.73 338.96 473.41 339.80
  Q 491.19 345.35 504.79 336.31
  A 0.46 0.46 0.0 0 1 505.50 336.69
  L 505.16 373.29
  A 1.10 1.09 80.9 0 1 504.43 374.31
  C 500.46 375.69 496.46 376.87 492.88 378.90
  Q 476.71 388.08 471.77 406.97
  Q 468.79 418.36 472.23 428.26
  C 477.35 443.03 488.16 452.54 502.86 457.31
  A 1.29 1.28 9.1 0 1 503.75 458.53
  L 503.71 505.30
  A 0.51 0.51 0.0 0 1 503.20 505.81
  L 467.58 506.10
  A 0.40 0.40 0.0 0 0 467.18 506.50
  L 467.17 522.27
  A 0.61 0.60 90.0 0 0 467.77 522.88
  L 557.56 522.97
  Q 558.32 522.97 558.32 522.21
  L 558.35 506.42
  Q 558.36 505.73 557.67 505.73
  L 522.21 505.77
  Q 521.65 505.77 521.65 505.21
  L 521.82 458.02
  A 0.78 0.78 0.0 0 1 522.41 457.26
  Q 541.39 452.59 550.29 436.24
  C 563.31 412.31 549.06 379.65 521.85 374.71
  A 0.66 0.66 0.0 0 1 521.31 374.06
  Q 521.35 359.61 521.23 342.69
  Q 521.21 339.68 520.76 337.02
  A 0.45 0.44 8.6 0 1 521.40 336.55
  C 530.92 341.36 543.76 344.58 553.74 340.20
  Q 556.02 339.20 557.63 337.75
  C 563.05 332.87 567.83 328.25 575.02 325.82
  Q 591.41 320.28 610.09 327.63
  A 0.65 0.65 0.0 0 1 610.45 328.49
  Q 588.48 380.84 565.92 435.26
  Q 563.66 440.72 561.97 445.70
  A 0.62 0.62 0.0 0 0 562.56 446.52
  L 577.73 446.38
  A 1.27 1.24 -78.9 0 0 578.87 445.60
  Q 590.54 417.11 602.00 389.28
  Q 605.21 381.47 608.96 371.50
  Q 610.08 368.52 610.72 365.51
  Q 610.97 364.33 610.97 365.54"
/>
<path stroke="#96999f" vector-effect="non-scaling-stroke" d="
  M 690.28 601.22
  A 0.30 0.30 0.0 0 1 690.51 601.71
  Q 672.11 623.60 654.17 643.99
  C 652.29 646.13 652.76 650.20 652.78 652.94
  Q 652.79 653.58 653.43 653.58
  L 711.27 653.44
  A 0.46 0.46 0.0 0 0 711.73 652.98
  L 711.72 642.11
  A 0.85 0.85 0.0 0 0 710.86 641.26
  L 675.54 641.31
  A 0.58 0.57 19.8 0 1 675.09 640.37
  L 710.13 598.29
  Q 710.74 597.55 710.75 596.60
  L 710.76 588.69
  A 0.41 0.41 0.0 0 0 710.35 588.28
  L 655.57 588.42
  A 1.02 1.01 -0.3 0 0 654.56 589.43
  L 654.63 600.31
  Q 654.64 601.23 655.56 601.23
  L 690.28 601.22"
/>
<path stroke="#96999f" vector-effect="non-scaling-stroke" d="
  M 773.28 641.37
  A 0.31 0.31 0.0 0 1 773.56 641.56
  L 778.86 653.63
  A 0.31 0.31 0.0 0 0 779.14 653.82
  L 794.50 653.73
  A 0.31 0.31 0.0 0 0 794.78 653.29
  L 765.44 588.57
  A 0.31 0.31 0.0 0 0 765.16 588.39
  L 753.40 588.17
  A 0.31 0.31 0.0 0 0 753.11 588.35
  L 722.36 653.13
  A 0.31 0.31 0.0 0 0 722.65 653.58
  L 738.16 653.44
  A 0.31 0.31 0.0 0 0 738.44 653.25
  L 743.37 641.50
  A 0.31 0.31 0.0 0 1 743.66 641.31
  L 773.28 641.37"
/>
<path stroke="#96999f" vector-effect="non-scaling-stroke" d="
  M 250.27 589.32
  A 0.75 0.75 0.0 0 0 249.52 588.57
  L 235.58 588.57
  A 0.75 0.75 0.0 0 0 234.83 589.32
  L 234.83 653.02
  A 0.75 0.75 0.0 0 0 235.58 653.77
  L 249.52 653.77
  A 0.75 0.75 0.0 0 0 250.27 653.02
  L 250.27 589.32"
/>
<path stroke="#96999f" vector-effect="non-scaling-stroke" d="
  M 322.48 626.45
  Q 322.48 627.96 321.51 626.80
  L 290.84 589.74
  Q 289.89 588.59 288.40 588.58
  L 278.40 588.53
  A 0.58 0.57 0.0 0 0 277.82 589.10
  L 277.55 652.61
  Q 277.55 653.68 278.62 653.67
  L 291.47 653.60
  Q 292.80 653.60 292.80 652.27
  L 292.83 615.14
  Q 292.83 614.10 293.47 614.92
  Q 306.42 631.46 318.35 645.36
  Q 321.51 649.04 324.96 652.68
  A 3.35 3.31 68.2 0 0 327.35 653.72
  L 337.07 653.76
  Q 337.91 653.77 337.91 652.93
  L 337.83 589.05
  A 0.54 0.54 0.0 0 0 337.30 588.51
  L 323.15 588.46
  A 0.64 0.63 -90.0 0 0 322.52 589.10
  L 322.48 626.45"
/>
<path stroke="#96999f" vector-effect="non-scaling-stroke" d="
  M 365.18 589.42
  L 365.30 653.00
  A 0.78 0.78 0.0 0 0 366.08 653.78
  L 397.39 653.72
  A 34.35 31.12 -0.1 0 0 431.68 622.54
  L 431.68 619.64
  A 34.35 31.12 -0.1 0 0 397.27 588.58
  L 365.96 588.64
  A 0.78 0.78 0.0 0 0 365.18 589.42"
/>
<path stroke="#96999f" vector-effect="non-scaling-stroke" d="
  M 468.13 626.85
  A 0.59 0.59 0.0 0 1 468.71 626.27
  L 497.17 626.09
  A 0.59 0.59 0.0 0 0 497.76 625.51
  L 497.89 615.09
  A 0.59 0.59 0.0 0 0 497.30 614.49
  L 468.83 614.56
  A 0.59 0.59 0.0 0 1 468.24 613.97
  L 468.20 601.54
  A 0.59 0.59 0.0 0 1 468.79 600.95
  L 502.69 600.74
  A 0.59 0.59 0.0 0 0 503.28 600.16
  L 503.39 589.07
  A 0.59 0.59 0.0 0 0 502.80 588.47
  L 453.56 588.76
  A 0.59 0.59 0.0 0 0 452.97 589.35
  L 453.07 653.16
  A 0.59 0.59 0.0 0 0 453.66 653.75
  L 504.40 653.65
  A 0.59 0.59 0.0 0 0 504.99 653.06
  L 504.95 642.11
  A 0.59 0.59 0.0 0 0 504.36 641.52
  L 468.61 641.59
  A 0.59 0.59 0.0 0 1 468.01 640.99
  L 468.13 626.85"
/>
<path stroke="#96999f" vector-effect="non-scaling-stroke" d="
  M 630.90 589.03
  A 0.51 0.51 0.0 0 0 630.39 588.52
  L 615.93 588.52
  A 0.51 0.51 0.0 0 0 615.42 589.03
  L 615.42 653.19
  A 0.51 0.51 0.0 0 0 615.93 653.70
  L 630.39 653.70
  A 0.51 0.51 0.0 0 0 630.90 653.19
  L 630.90 589.03"
/>
<path stroke="#96999f" vector-effect="non-scaling-stroke" d="
  M 573.24 626.73
  Q 573.24 627.82 572.55 626.98
  Q 556.38 607.24 540.26 589.18
  A 1.34 1.34 0.0 0 0 539.26 588.73
  L 528.74 588.73
  Q 528.32 588.73 528.32 589.15
  Q 528.32 619.25 528.29 649.19
  Q 528.28 651.34 528.53 653.41
  A 0.46 0.46 0.0 0 0 528.99 653.81
  L 543.00 653.76
  Q 543.66 653.76 543.65 653.10
  L 543.27 615.95
  Q 543.25 614.38 544.26 615.58
  L 575.83 652.83
  A 2.71 2.68 69.6 0 0 577.88 653.78
  L 587.89 653.75
  A 0.64 0.63 -90.0 0 0 588.52 653.11
  L 588.48 589.50
  A 0.73 0.73 0.0 0 0 587.75 588.77
  L 573.77 588.71
  Q 573.25 588.71 573.25 589.23
  L 573.24 626.73"
/>
<path stroke="#83715a" vector-effect="non-scaling-stroke" d="
  M 555.49 705.27
  C 557.43 705.39 559.13 708.02 560.72 707.70
  Q 562.28 707.39 562.22 705.79
  Q 562.10 702.51 558.54 701.40
  Q 552.91 699.66 547.75 702.66
  C 541.79 706.13 540.18 714.71 544.84 719.86
  C 549.20 724.68 557.65 725.60 562.24 720.50
  Q 563.51 719.10 561.78 718.35
  L 560.25 717.68
  Q 558.77 717.04 557.52 718.05
  Q 553.62 721.22 549.83 718.00
  C 543.86 712.91 548.39 704.82 555.49 705.27"
/>
<path stroke="#83715a" vector-effect="non-scaling-stroke" d="
  M 603.87 719.38
  L 605.43 722.91
  A 1.96 1.94 -13.3 0 0 607.32 724.07
  L 609.26 723.95
  Q 610.80 723.86 610.22 722.43
  Q 606.91 714.37 602.91 705.74
  Q 601.74 703.22 600.17 701.24
  Q 599.85 700.84 599.34 700.76
  Q 596.78 700.37 595.83 702.55
  Q 591.53 712.42 586.85 722.54
  A 0.62 0.61 21.1 0 0 587.23 723.39
  C 593.22 725.26 591.41 718.96 595.39 718.88
  Q 599.31 718.81 602.94 718.78
  Q 603.61 718.77 603.87 719.38"
/>
<path stroke="#83715a" vector-effect="non-scaling-stroke" d="
  M 471.7978 712.7492
  A 11.94 11.45 1.1 0 0 460.0798 701.0721
  A 11.94 11.45 1.1 0 0 447.9222 712.2908
  A 11.94 11.45 1.1 0 0 459.6402 723.9679
  A 11.94 11.45 1.1 0 0 471.7978 712.7492"
/>
<path stroke="#83715a" vector-effect="non-scaling-stroke" d="
  M 504.46 707.79
  C 507.13 704.91 512.02 704.89 514.89 707.44
  A 1.28 1.28 0.0 0 0 516.89 707.05
  L 517.18 706.45
  Q 517.97 704.80 516.61 703.57
  C 513.21 700.48 507.88 700.50 503.98 702.39
  C 494.82 706.84 495.53 719.82 505.39 723.02
  C 508.94 724.17 516.07 724.31 517.55 720.02
  Q 517.74 719.46 517.44 718.96
  Q 516.56 717.50 514.99 717.44
  Q 514.36 717.41 513.89 717.82
  Q 510.44 720.81 506.15 718.64
  C 502.03 716.55 501.51 711.00 504.46 707.79"
/>
<path stroke="#83715a" vector-effect="non-scaling-stroke" d="
  M 703.06 716.61
  Q 703.69 718.91 701.16 719.65
  Q 698.33 720.47 695.43 718.66
  Q 693.40 717.38 691.82 719.19
  L 691.54 719.51
  Q 690.11 721.15 692.07 722.09
  C 696.92 724.41 708.73 725.33 708.37 716.56
  C 708.20 712.29 702.17 710.99 698.99 710.35
  Q 696.48 709.85 696.78 707.36
  A 2.21 2.20 1.1 0 1 698.80 705.42
  Q 701.71 705.18 704.97 706.26
  Q 707.07 706.96 706.99 704.75
  L 706.97 704.36
  A 2.78 2.78 0.0 0 0 704.92 701.77
  Q 698.86 700.12 694.60 702.52
  C 689.23 705.55 690.84 713.51 696.96 714.45
  Q 699.28 714.81 701.51 715.20
  A 1.97 1.97 0.0 0 1 703.06 716.61"
/>
<path stroke="#83715a" vector-effect="non-scaling-stroke" d="
  M 414.64 716.75
  Q 414.29 716.66 414.16 716.33
  Q 411.29 709.18 407.58 701.98
  Q 407.15 701.14 406.20 701.19
  L 403.31 701.34
  Q 402.27 701.40 402.64 702.37
  Q 405.48 709.75 410.51 721.59
  C 411.40 723.69 414.66 723.38 416.52 723.20
  Q 417.02 723.15 417.21 722.69
  L 425.42 702.86
  Q 425.98 701.50 424.51 701.51
  L 422.01 701.53
  Q 420.71 701.53 420.25 702.75
  L 415.04 716.54
  A 0.35 0.34 -72.5 0 1 414.64 716.75"
/>
<path stroke="#83715a" vector-effect="non-scaling-stroke" d="
  M 638.59 709.08
  C 640.61 704.95 646.13 704.65 649.45 707.29
  A 1.79 1.79 0.0 0 0 651.61 707.34
  Q 652.02 707.05 652.28 706.63
  Q 653.19 705.18 652.03 703.93
  Q 650.37 702.12 647.42 701.54
  Q 639.45 699.94 635.26 705.06
  C 631.22 710.00 632.37 719.41 638.24 722.46
  C 642.83 724.84 653.90 725.16 653.33 717.07
  A 2.49 2.48 1.7 0 0 651.16 714.78
  C 648.33 714.42 648.62 719.39 645.22 719.58
  C 639.06 719.93 635.96 714.43 638.59 709.08"
/>
<path stroke="#83715a" vector-effect="non-scaling-stroke" d="
  M 358.38 702.68
  L 358.34 722.14
  A 1.23 1.23 0.0 0 0 359.57 723.37
  L 369.22 723.39
  A 11.34 10.89 0.1 0 0 380.58 712.52
  L 380.58 712.38
  A 11.34 10.89 0.1 0 0 369.26 701.47
  L 359.61 701.45
  A 1.23 1.23 0.0 0 0 358.38 702.68"
/>
<path stroke="#83715a" vector-effect="non-scaling-stroke" d="
  M 329.11 719.54
  L 330.57 722.24
  Q 331.27 723.54 332.75 723.48
  L 334.00 723.42
  Q 335.52 723.35 334.89 721.97
  L 326.21 702.90
  A 1.65 1.63 -4.5 0 0 325.13 701.99
  Q 323.27 701.49 321.49 701.94
  Q 320.72 702.14 320.44 702.89
  Q 316.69 712.99 311.76 722.01
  A 0.58 0.57 -75.1 0 0 312.25 722.86
  L 315.97 722.96
  Q 316.53 722.97 316.74 722.45
  C 317.40 720.78 317.84 718.75 320.08 718.69
  Q 324.50 718.58 327.96 718.80
  A 1.41 1.41 0.0 0 1 329.11 719.54"
/>
<path stroke="#83715a" vector-effect="non-scaling-stroke" d="
  M 518.0884 440.8410
  A 25.58 25.23 78.0 0 0 537.4487 410.5744
  A 25.58 25.23 78.0 0 0 507.4516 390.7990
  A 25.58 25.23 78.0 0 0 488.0913 421.0656
  A 25.58 25.23 78.0 0 0 518.0884 440.8410"
/>
<path stroke="#83715a" vector-effect="non-scaling-stroke" d="
  M 385.45 483.60
  C 394.78 488.00 405.74 488.38 416.31 487.01
  C 424.77 485.92 431.24 482.50 437.48 477.13
  C 439.75 475.17 441.93 473.13 443.38 470.50
  Q 444.03 469.32 442.68 469.32
  L 369.73 469.78
  A 0.38 0.38 0.0 0 0 369.43 470.40
  Q 376.63 479.45 385.45 483.60"
/>
<path stroke="#83715a" vector-effect="non-scaling-stroke" d="
  M 581.85 470.26
  C 593.16 484.24 608.55 489.54 626.38 487.33
  Q 645.05 485.03 656.21 469.93
  A 0.35 0.35 0.0 0 0 655.93 469.37
  L 582.26 469.40
  A 0.53 0.53 0.0 0 0 581.85 470.26"
/>
<path stroke="#83715a" vector-effect="non-scaling-stroke" d="
  M 526.9343 414.5328
  A 12.69 12.69 0.0 0 0 514.4003 401.6888
  L 511.5005 401.6533
  A 12.69 12.69 0.0 0 0 498.6564 414.1873
  L 498.6257 416.7072
  A 12.69 12.69 0.0 0 0 511.1597 429.5512
  L 514.0595 429.5867
  A 12.69 12.69 0.0 0 0 526.9036 417.0527
  L 526.9343 414.5328"
/>
<path stroke="#96999f" vector-effect="non-scaling-stroke" d="
  M 748.16 629.22
  A 0.32 0.32 0.0 0 0 748.45 629.67
  L 768.68 629.81
  A 0.32 0.32 0.0 0 0 768.97 629.37
  L 759.02 605.94
  A 0.32 0.32 0.0 0 0 758.44 605.94
  L 748.16 629.22"
/>
<path stroke="#96999f" vector-effect="non-scaling-stroke" d="
  M 380.70 601.97
  L 380.76 640.53
  A 0.85 0.85 0.0 0 0 381.62 641.38
  L 396.42 641.35
  A 20.05 19.35 -0.1 0 0 416.43 621.97
  L 416.43 620.41
  A 20.05 19.35 -0.1 0 0 396.34 601.09
  L 381.54 601.12
  A 0.85 0.85 0.0 0 0 380.70 601.97"
/>
<path stroke="#83715a" vector-effect="non-scaling-stroke" d="
  M 595.93 714.33
  A 0.49 0.49 0.0 0 0 596.38 715.00
  L 601.09 715.04
  A 0.49 0.49 0.0 0 0 601.54 714.34
  L 598.93 708.77
  A 0.49 0.49 0.0 0 0 598.03 708.80
  L 595.93 714.33"
/>
<path stroke="#83715a" vector-effect="non-scaling-stroke" d="
  M 466.7824 710.8398
  A 7.07 6.75 -12.5 0 0 458.4190 705.7800
  A 7.07 6.75 -12.5 0 0 452.9776 713.9002
  A 7.07 6.75 -12.5 0 0 461.3410 718.9600
  A 7.07 6.75 -12.5 0 0 466.7824 710.8398"
/>
<path stroke="#83715a" vector-effect="non-scaling-stroke" d="
  M 363.16 706.97
  L 363.22 717.89
  A 1.14 1.14 0.0 0 0 364.36 719.03
  L 368.80 719.00
  A 6.48 6.28 -0.3 0 0 375.25 712.69
  L 375.25 712.05
  A 6.48 6.28 -0.3 0 0 368.74 705.80
  L 364.30 705.83
  A 1.14 1.14 0.0 0 0 363.16 706.97"
/>
<path stroke="#83715a" vector-effect="non-scaling-stroke" d="
  M 320.42 714.39
  A 0.63 0.63 0.0 0 0 321.01 715.24
  L 325.76 715.23
  A 0.63 0.63 0.0 0 0 326.35 714.38
  L 323.96 707.94
  A 0.63 0.63 0.0 0 0 322.78 707.94
  L 320.42 714.39"
/>
</g>
<path fill="#303642" d="
  M 0.00 0.00
  L 1024.00 0.00
  L 1024.00 1024.00
  L 0.00 1024.00
  L 0.00 0.00
  Z
  M 610.97 365.54
  L 610.54 452.93
  Q 610.53 453.64 609.82 453.64
  L 560.97 453.84
  A 0.64 0.64 0.0 0 0 560.34 454.54
  C 562.75 480.08 583.32 498.47 607.57 503.18
  C 625.41 506.65 644.87 501.53 658.73 490.23
  C 666.74 483.70 675.13 472.71 677.16 462.00
  Q 677.92 457.97 678.24 454.12
  A 0.55 0.55 0.0 0 0 677.69 453.52
  L 627.75 453.49
  A 0.49 0.48 90.0 0 1 627.27 453.00
  L 626.61 367.50
  Q 626.60 365.95 627.20 367.38
  Q 644.05 407.37 659.09 445.56
  A 0.75 0.74 -11.3 0 0 659.80 446.03
  L 675.05 445.56
  Q 675.76 445.54 675.51 444.88
  Q 671.75 435.02 667.56 424.45
  Q 644.40 366.06 623.15 314.92
  A 1.37 1.37 0.0 0 0 622.04 314.09
  Q 618.13 313.70 614.26 312.01
  C 596.64 304.30 575.47 304.35 559.41 315.68
  Q 555.22 318.64 550.85 322.08
  Q 545.87 326.00 538.52 324.54
  C 534.81 323.81 530.50 321.56 529.30 317.65
  Q 528.48 315.01 527.98 312.27
  C 527.09 307.52 520.98 305.41 517.17 303.74
  A 0.96 0.96 0.0 0 1 517.06 302.03
  Q 520.46 300.00 524.84 300.03
  A 0.81 0.81 0.0 0 0 525.50 298.74
  Q 518.87 289.68 513.49 280.06
  Q 513.20 279.53 512.87 280.04
  L 500.38 299.64
  A 0.42 0.41 -72.0 0 0 500.70 300.28
  Q 504.83 300.52 508.57 301.65
  A 0.69 0.69 0.0 0 1 508.77 302.88
  Q 504.66 305.76 500.19 307.71
  A 3.01 2.99 81.2 0 0 498.42 310.15
  C 498.19 312.37 498.34 314.82 497.42 316.90
  Q 494.88 322.65 490.44 324.12
  Q 482.88 326.61 475.81 322.02
  C 471.90 319.48 468.60 316.07 464.43 313.65
  Q 449.67 305.07 431.45 306.96
  C 422.66 307.88 414.02 311.16 405.50 314.21
  Q 403.76 314.84 403.15 316.42
  C 386.62 359.87 368.66 402.63 351.13 445.18
  A 0.44 0.44 0.0 0 0 351.53 445.79
  L 367.68 445.79
  A 0.59 0.59 0.0 0 0 368.23 445.42
  Q 384.93 406.55 400.33 365.90
  Q 400.78 364.72 400.78 365.99
  L 400.42 453.08
  A 0.50 0.50 0.0 0 1 399.92 453.58
  L 348.29 453.82
  A 0.65 0.65 0.0 0 0 347.65 454.52
  C 349.74 481.04 372.86 499.94 397.74 503.50
  Q 418.17 506.43 437.01 496.49
  C 452.69 488.23 464.22 472.01 465.79 454.31
  A 0.63 0.62 -87.5 0 0 465.17 453.63
  L 417.34 453.57
  A 0.44 0.43 90.0 0 1 416.91 453.13
  Q 417.24 409.66 416.08 366.82
  Q 416.05 365.56 416.56 366.71
  C 417.79 369.41 418.49 372.35 419.61 375.04
  C 428.60 396.56 438.67 420.90 448.00 444.32
  A 2.69 2.68 -10.7 0 0 450.50 446.02
  L 464.71 446.02
  A 0.56 0.56 0.0 0 0 465.23 445.26
  C 459.41 429.63 453.50 414.59 446.72 398.85
  Q 431.83 364.30 417.71 327.45
  Q 417.47 326.83 418.11 326.63
  C 431.30 322.38 445.30 322.13 457.54 328.87
  C 461.68 331.14 465.13 334.44 468.78 337.38
  Q 470.73 338.96 473.41 339.80
  Q 491.19 345.35 504.79 336.31
  A 0.46 0.46 0.0 0 1 505.50 336.69
  L 505.16 373.29
  A 1.10 1.09 80.9 0 1 504.43 374.31
  C 500.46 375.69 496.46 376.87 492.88 378.90
  Q 476.71 388.08 471.77 406.97
  Q 468.79 418.36 472.23 428.26
  C 477.35 443.03 488.16 452.54 502.86 457.31
  A 1.29 1.28 9.1 0 1 503.75 458.53
  L 503.71 505.30
  A 0.51 0.51 0.0 0 1 503.20 505.81
  L 467.58 506.10
  A 0.40 0.40 0.0 0 0 467.18 506.50
  L 467.17 522.27
  A 0.61 0.60 90.0 0 0 467.77 522.88
  L 557.56 522.97
  Q 558.32 522.97 558.32 522.21
  L 558.35 506.42
  Q 558.36 505.73 557.67 505.73
  L 522.21 505.77
  Q 521.65 505.77 521.65 505.21
  L 521.82 458.02
  A 0.78 0.78 0.0 0 1 522.41 457.26
  Q 541.39 452.59 550.29 436.24
  C 563.31 412.31 549.06 379.65 521.85 374.71
  A 0.66 0.66 0.0 0 1 521.31 374.06
  Q 521.35 359.61 521.23 342.69
  Q 521.21 339.68 520.76 337.02
  A 0.45 0.44 8.6 0 1 521.40 336.55
  C 530.92 341.36 543.76 344.58 553.74 340.20
  Q 556.02 339.20 557.63 337.75
  C 563.05 332.87 567.83 328.25 575.02 325.82
  Q 591.41 320.28 610.09 327.63
  A 0.65 0.65 0.0 0 1 610.45 328.49
  Q 588.48 380.84 565.92 435.26
  Q 563.66 440.72 561.97 445.70
  A 0.62 0.62 0.0 0 0 562.56 446.52
  L 577.73 446.38
  A 1.27 1.24 -78.9 0 0 578.87 445.60
  Q 590.54 417.11 602.00 389.28
  Q 605.21 381.47 608.96 371.50
  Q 610.08 368.52 610.72 365.51
  Q 610.97 364.33 610.97 365.54
  Z
  M 690.28 601.22
  A 0.30 0.30 0.0 0 1 690.51 601.71
  Q 672.11 623.60 654.17 643.99
  C 652.29 646.13 652.76 650.20 652.78 652.94
  Q 652.79 653.58 653.43 653.58
  L 711.27 653.44
  A 0.46 0.46 0.0 0 0 711.73 652.98
  L 711.72 642.11
  A 0.85 0.85 0.0 0 0 710.86 641.26
  L 675.54 641.31
  A 0.58 0.57 19.8 0 1 675.09 640.37
  L 710.13 598.29
  Q 710.74 597.55 710.75 596.60
  L 710.76 588.69
  A 0.41 0.41 0.0 0 0 710.35 588.28
  L 655.57 588.42
  A 1.02 1.01 -0.3 0 0 654.56 589.43
  L 654.63 600.31
  Q 654.64 601.23 655.56 601.23
  L 690.28 601.22
  Z
  M 773.28 641.37
  A 0.31 0.31 0.0 0 1 773.56 641.56
  L 778.86 653.63
  A 0.31 0.31 0.0 0 0 779.14 653.82
  L 794.50 653.73
  A 0.31 0.31 0.0 0 0 794.78 653.29
  L 765.44 588.57
  A 0.31 0.31 0.0 0 0 765.16 588.39
  L 753.40 588.17
  A 0.31 0.31 0.0 0 0 753.11 588.35
  L 722.36 653.13
  A 0.31 0.31 0.0 0 0 722.65 653.58
  L 738.16 653.44
  A 0.31 0.31 0.0 0 0 738.44 653.25
  L 743.37 641.50
  A 0.31 0.31 0.0 0 1 743.66 641.31
  L 773.28 641.37
  Z
  M 250.27 589.32
  A 0.75 0.75 0.0 0 0 249.52 588.57
  L 235.58 588.57
  A 0.75 0.75 0.0 0 0 234.83 589.32
  L 234.83 653.02
  A 0.75 0.75 0.0 0 0 235.58 653.77
  L 249.52 653.77
  A 0.75 0.75 0.0 0 0 250.27 653.02
  L 250.27 589.32
  Z
  M 322.48 626.45
  Q 322.48 627.96 321.51 626.80
  L 290.84 589.74
  Q 289.89 588.59 288.40 588.58
  L 278.40 588.53
  A 0.58 0.57 0.0 0 0 277.82 589.10
  L 277.55 652.61
  Q 277.55 653.68 278.62 653.67
  L 291.47 653.60
  Q 292.80 653.60 292.80 652.27
  L 292.83 615.14
  Q 292.83 614.10 293.47 614.92
  Q 306.42 631.46 318.35 645.36
  Q 321.51 649.04 324.96 652.68
  A 3.35 3.31 68.2 0 0 327.35 653.72
  L 337.07 653.76
  Q 337.91 653.77 337.91 652.93
  L 337.83 589.05
  A 0.54 0.54 0.0 0 0 337.30 588.51
  L 323.15 588.46
  A 0.64 0.63 -90.0 0 0 322.52 589.10
  L 322.48 626.45
  Z
  M 365.18 589.42
  L 365.30 653.00
  A 0.78 0.78 0.0 0 0 366.08 653.78
  L 397.39 653.72
  A 34.35 31.12 -0.1 0 0 431.68 622.54
  L 431.68 619.64
  A 34.35 31.12 -0.1 0 0 397.27 588.58
  L 365.96 588.64
  A 0.78 0.78 0.0 0 0 365.18 589.42
  Z
  M 468.13 626.85
  A 0.59 0.59 0.0 0 1 468.71 626.27
  L 497.17 626.09
  A 0.59 0.59 0.0 0 0 497.76 625.51
  L 497.89 615.09
  A 0.59 0.59 0.0 0 0 497.30 614.49
  L 468.83 614.56
  A 0.59 0.59 0.0 0 1 468.24 613.97
  L 468.20 601.54
  A 0.59 0.59 0.0 0 1 468.79 600.95
  L 502.69 600.74
  A 0.59 0.59 0.0 0 0 503.28 600.16
  L 503.39 589.07
  A 0.59 0.59 0.0 0 0 502.80 588.47
  L 453.56 588.76
  A 0.59 0.59 0.0 0 0 452.97 589.35
  L 453.07 653.16
  A 0.59 0.59 0.0 0 0 453.66 653.75
  L 504.40 653.65
  A 0.59 0.59 0.0 0 0 504.99 653.06
  L 504.95 642.11
  A 0.59 0.59 0.0 0 0 504.36 641.52
  L 468.61 641.59
  A 0.59 0.59 0.0 0 1 468.01 640.99
  L 468.13 626.85
  Z
  M 630.90 589.03
  A 0.51 0.51 0.0 0 0 630.39 588.52
  L 615.93 588.52
  A 0.51 0.51 0.0 0 0 615.42 589.03
  L 615.42 653.19
  A 0.51 0.51 0.0 0 0 615.93 653.70
  L 630.39 653.70
  A 0.51 0.51 0.0 0 0 630.90 653.19
  L 630.90 589.03
  Z
  M 573.24 626.73
  Q 573.24 627.82 572.55 626.98
  Q 556.38 607.24 540.26 589.18
  A 1.34 1.34 0.0 0 0 539.26 588.73
  L 528.74 588.73
  Q 528.32 588.73 528.32 589.15
  Q 528.32 619.25 528.29 649.19
  Q 528.28 651.34 528.53 653.41
  A 0.46 0.46 0.0 0 0 528.99 653.81
  L 543.00 653.76
  Q 543.66 653.76 543.65 653.10
  L 543.27 615.95
  Q 543.25 614.38 544.26 615.58
  L 575.83 652.83
  A 2.71 2.68 69.6 0 0 577.88 653.78
  L 587.89 653.75
  A 0.64 0.63 -90.0 0 0 588.52 653.11
  L 588.48 589.50
  A 0.73 0.73 0.0 0 0 587.75 588.77
  L 573.77 588.71
  Q 573.25 588.71 573.25 589.23
  L 573.24 626.73
  Z
  M 555.49 705.27
  C 557.43 705.39 559.13 708.02 560.72 707.70
  Q 562.28 707.39 562.22 705.79
  Q 562.10 702.51 558.54 701.40
  Q 552.91 699.66 547.75 702.66
  C 541.79 706.13 540.18 714.71 544.84 719.86
  C 549.20 724.68 557.65 725.60 562.24 720.50
  Q 563.51 719.10 561.78 718.35
  L 560.25 717.68
  Q 558.77 717.04 557.52 718.05
  Q 553.62 721.22 549.83 718.00
  C 543.86 712.91 548.39 704.82 555.49 705.27
  Z
  M 603.87 719.38
  L 605.43 722.91
  A 1.96 1.94 -13.3 0 0 607.32 724.07
  L 609.26 723.95
  Q 610.80 723.86 610.22 722.43
  Q 606.91 714.37 602.91 705.74
  Q 601.74 703.22 600.17 701.24
  Q 599.85 700.84 599.34 700.76
  Q 596.78 700.37 595.83 702.55
  Q 591.53 712.42 586.85 722.54
  A 0.62 0.61 21.1 0 0 587.23 723.39
  C 593.22 725.26 591.41 718.96 595.39 718.88
  Q 599.31 718.81 602.94 718.78
  Q 603.61 718.77 603.87 719.38
  Z
  M 471.7978 712.7492
  A 11.94 11.45 1.1 0 0 460.0798 701.0721
  A 11.94 11.45 1.1 0 0 447.9222 712.2908
  A 11.94 11.45 1.1 0 0 459.6402 723.9679
  A 11.94 11.45 1.1 0 0 471.7978 712.7492
  Z
  M 504.46 707.79
  C 507.13 704.91 512.02 704.89 514.89 707.44
  A 1.28 1.28 0.0 0 0 516.89 707.05
  L 517.18 706.45
  Q 517.97 704.80 516.61 703.57
  C 513.21 700.48 507.88 700.50 503.98 702.39
  C 494.82 706.84 495.53 719.82 505.39 723.02
  C 508.94 724.17 516.07 724.31 517.55 720.02
  Q 517.74 719.46 517.44 718.96
  Q 516.56 717.50 514.99 717.44
  Q 514.36 717.41 513.89 717.82
  Q 510.44 720.81 506.15 718.64
  C 502.03 716.55 501.51 711.00 504.46 707.79
  Z
  M 703.06 716.61
  Q 703.69 718.91 701.16 719.65
  Q 698.33 720.47 695.43 718.66
  Q 693.40 717.38 691.82 719.19
  L 691.54 719.51
  Q 690.11 721.15 692.07 722.09
  C 696.92 724.41 708.73 725.33 708.37 716.56
  C 708.20 712.29 702.17 710.99 698.99 710.35
  Q 696.48 709.85 696.78 707.36
  A 2.21 2.20 1.1 0 1 698.80 705.42
  Q 701.71 705.18 704.97 706.26
  Q 707.07 706.96 706.99 704.75
  L 706.97 704.36
  A 2.78 2.78 0.0 0 0 704.92 701.77
  Q 698.86 700.12 694.60 702.52
  C 689.23 705.55 690.84 713.51 696.96 714.45
  Q 699.28 714.81 701.51 715.20
  A 1.97 1.97 0.0 0 1 703.06 716.61
  Z
  M 414.64 716.75
  Q 414.29 716.66 414.16 716.33
  Q 411.29 709.18 407.58 701.98
  Q 407.15 701.14 406.20 701.19
  L 403.31 701.34
  Q 402.27 701.40 402.64 702.37
  Q 405.48 709.75 410.51 721.59
  C 411.40 723.69 414.66 723.38 416.52 723.20
  Q 417.02 723.15 417.21 722.69
  L 425.42 702.86
  Q 425.98 701.50 424.51 701.51
  L 422.01 701.53
  Q 420.71 701.53 420.25 702.75
  L 415.04 716.54
  A 0.35 0.34 -72.5 0 1 414.64 716.75
  Z
  M 638.59 709.08
  C 640.61 704.95 646.13 704.65 649.45 707.29
  A 1.79 1.79 0.0 0 0 651.61 707.34
  Q 652.02 707.05 652.28 706.63
  Q 653.19 705.18 652.03 703.93
  Q 650.37 702.12 647.42 701.54
  Q 639.45 699.94 635.26 705.06
  C 631.22 710.00 632.37 719.41 638.24 722.46
  C 642.83 724.84 653.90 725.16 653.33 717.07
  A 2.49 2.48 1.7 0 0 651.16 714.78
  C 648.33 714.42 648.62 719.39 645.22 719.58
  C 639.06 719.93 635.96 714.43 638.59 709.08
  Z
  M 358.38 702.68
  L 358.34 722.14
  A 1.23 1.23 0.0 0 0 359.57 723.37
  L 369.22 723.39
  A 11.34 10.89 0.1 0 0 380.58 712.52
  L 380.58 712.38
  A 11.34 10.89 0.1 0 0 369.26 701.47
  L 359.61 701.45
  A 1.23 1.23 0.0 0 0 358.38 702.68
  Z
  M 329.11 719.54
  L 330.57 722.24
  Q 331.27 723.54 332.75 723.48
  L 334.00 723.42
  Q 335.52 723.35 334.89 721.97
  L 326.21 702.90
  A 1.65 1.63 -4.5 0 0 325.13 701.99
  Q 323.27 701.49 321.49 701.94
  Q 320.72 702.14 320.44 702.89
  Q 316.69 712.99 311.76 722.01
  A 0.58 0.57 -75.1 0 0 312.25 722.86
  L 315.97 722.96
  Q 316.53 722.97 316.74 722.45
  C 317.40 720.78 317.84 718.75 320.08 718.69
  Q 324.50 718.58 327.96 718.80
  A 1.41 1.41 0.0 0 1 329.11 719.54
  Z"
/>
<path fill="#d6ac72" d="
  M 610.72 365.51
  Q 610.08 368.52 608.96 371.50
  Q 605.21 381.47 602.00 389.28
  Q 590.54 417.11 578.87 445.60
  A 1.27 1.24 -78.9 0 1 577.73 446.38
  L 562.56 446.52
  A 0.62 0.62 0.0 0 1 561.97 445.70
  Q 563.66 440.72 565.92 435.26
  Q 588.48 380.84 610.45 328.49
  A 0.65 0.65 0.0 0 0 610.09 327.63
  Q 591.41 320.28 575.02 325.82
  C 567.83 328.25 563.05 332.87 557.63 337.75
  Q 556.02 339.20 553.74 340.20
  C 543.76 344.58 530.92 341.36 521.40 336.55
  A 0.45 0.44 8.6 0 0 520.76 337.02
  Q 521.21 339.68 521.23 342.69
  Q 521.35 359.61 521.31 374.06
  A 0.66 0.66 0.0 0 0 521.85 374.71
  C 549.06 379.65 563.31 412.31 550.29 436.24
  Q 541.39 452.59 522.41 457.26
  A 0.78 0.78 0.0 0 0 521.82 458.02
  L 521.65 505.21
  Q 521.65 505.77 522.21 505.77
  L 557.67 505.73
  Q 558.36 505.73 558.35 506.42
  L 558.32 522.21
  Q 558.32 522.97 557.56 522.97
  L 467.77 522.88
  A 0.61 0.60 90.0 0 1 467.17 522.27
  L 467.18 506.50
  A 0.40 0.40 0.0 0 1 467.58 506.10
  L 503.20 505.81
  A 0.51 0.51 0.0 0 0 503.71 505.30
  L 503.75 458.53
  A 1.29 1.28 9.1 0 0 502.86 457.31
  C 488.16 452.54 477.35 443.03 472.23 428.26
  Q 468.79 418.36 471.77 406.97
  Q 476.71 388.08 492.88 378.90
  C 496.46 376.87 500.46 375.69 504.43 374.31
  A 1.10 1.09 80.9 0 0 505.16 373.29
  L 505.50 336.69
  A 0.46 0.46 0.0 0 0 504.79 336.31
  Q 491.19 345.35 473.41 339.80
  Q 470.73 338.96 468.78 337.38
  C 465.13 334.44 461.68 331.14 457.54 328.87
  C 445.30 322.13 431.30 322.38 418.11 326.63
  Q 417.47 326.83 417.71 327.45
  Q 431.83 364.30 446.72 398.85
  C 453.50 414.59 459.41 429.63 465.23 445.26
  A 0.56 0.56 0.0 0 1 464.71 446.02
  L 450.50 446.02
  A 2.69 2.68 -10.7 0 1 448.00 444.32
  C 438.67 420.90 428.60 396.56 419.61 375.04
  C 418.49 372.35 417.79 369.41 416.56 366.71
  Q 416.05 365.56 416.08 366.82
  Q 417.24 409.66 416.91 453.13
  A 0.44 0.43 90.0 0 0 417.34 453.57
  L 465.17 453.63
  A 0.63 0.62 -87.5 0 1 465.79 454.31
  C 464.22 472.01 452.69 488.23 437.01 496.49
  Q 418.17 506.43 397.74 503.50
  C 372.86 499.94 349.74 481.04 347.65 454.52
  A 0.65 0.65 0.0 0 1 348.29 453.82
  L 399.92 453.58
  A 0.50 0.50 0.0 0 0 400.42 453.08
  L 400.78 365.99
  Q 400.78 364.72 400.33 365.90
  Q 384.93 406.55 368.23 445.42
  A 0.59 0.59 0.0 0 1 367.68 445.79
  L 351.53 445.79
  A 0.44 0.44 0.0 0 1 351.13 445.18
  C 368.66 402.63 386.62 359.87 403.15 316.42
  Q 403.76 314.84 405.50 314.21
  C 414.02 311.16 422.66 307.88 431.45 306.96
  Q 449.67 305.07 464.43 313.65
  C 468.60 316.07 471.90 319.48 475.81 322.02
  Q 482.88 326.61 490.44 324.12
  Q 494.88 322.65 497.42 316.90
  C 498.34 314.82 498.19 312.37 498.42 310.15
  A 3.01 2.99 81.2 0 1 500.19 307.71
  Q 504.66 305.76 508.77 302.88
  A 0.69 0.69 0.0 0 0 508.57 301.65
  Q 504.83 300.52 500.70 300.28
  A 0.42 0.41 -72.0 0 1 500.38 299.64
  L 512.87 280.04
  Q 513.20 279.53 513.49 280.06
  Q 518.87 289.68 525.50 298.74
  A 0.81 0.81 0.0 0 1 524.84 300.03
  Q 520.46 300.00 517.06 302.03
  A 0.96 0.96 0.0 0 0 517.17 303.74
  C 520.98 305.41 527.09 307.52 527.98 312.27
  Q 528.48 315.01 529.30 317.65
  C 530.50 321.56 534.81 323.81 538.52 324.54
  Q 545.87 326.00 550.85 322.08
  Q 555.22 318.64 559.41 315.68
  C 575.47 304.35 596.64 304.30 614.26 312.01
  Q 618.13 313.70 622.04 314.09
  A 1.37 1.37 0.0 0 1 623.15 314.92
  Q 644.40 366.06 667.56 424.45
  Q 671.75 435.02 675.51 444.88
  Q 675.76 445.54 675.05 445.56
  L 659.80 446.03
  A 0.75 0.74 -11.3 0 1 659.09 445.56
  Q 644.05 407.37 627.20 367.38
  Q 626.60 365.95 626.61 367.50
  L 627.27 453.00
  A 0.49 0.48 90.0 0 0 627.75 453.49
  L 677.69 453.52
  A 0.55 0.55 0.0 0 1 678.24 454.12
  Q 677.92 457.97 677.16 462.00
  C 675.13 472.71 666.74 483.70 658.73 490.23
  C 644.87 501.53 625.41 506.65 607.57 503.18
  C 583.32 498.47 562.75 480.08 560.34 454.54
  A 0.64 0.64 0.0 0 1 560.97 453.84
  L 609.82 453.64
  Q 610.53 453.64 610.54 452.93
  L 610.97 365.54
  Q 610.97 364.33 610.72 365.51
  Z
  M 518.0884 440.8410
  A 25.58 25.23 78.0 0 0 537.4487 410.5744
  A 25.58 25.23 78.0 0 0 507.4516 390.7990
  A 25.58 25.23 78.0 0 0 488.0913 421.0656
  A 25.58 25.23 78.0 0 0 518.0884 440.8410
  Z
  M 385.45 483.60
  C 394.78 488.00 405.74 488.38 416.31 487.01
  C 424.77 485.92 431.24 482.50 437.48 477.13
  C 439.75 475.17 441.93 473.13 443.38 470.50
  Q 444.03 469.32 442.68 469.32
  L 369.73 469.78
  A 0.38 0.38 0.0 0 0 369.43 470.40
  Q 376.63 479.45 385.45 483.60
  Z
  M 581.85 470.26
  C 593.16 484.24 608.55 489.54 626.38 487.33
  Q 645.05 485.03 656.21 469.93
  A 0.35 0.35 0.0 0 0 655.93 469.37
  L 582.26 469.40
  A 0.53 0.53 0.0 0 0 581.85 470.26
  Z"
/>
<path fill="#303642" d="
  M 518.0884 440.8410
  A 25.58 25.23 78.0 0 1 488.0913 421.0656
  A 25.58 25.23 78.0 0 1 507.4516 390.7990
  A 25.58 25.23 78.0 0 1 537.4487 410.5744
  A 25.58 25.23 78.0 0 1 518.0884 440.8410
  Z
  M 526.9343 414.5328
  A 12.69 12.69 0.0 0 0 514.4003 401.6888
  L 511.5005 401.6533
  A 12.69 12.69 0.0 0 0 498.6564 414.1873
  L 498.6257 416.7072
  A 12.69 12.69 0.0 0 0 511.1597 429.5512
  L 514.0595 429.5867
  A 12.69 12.69 0.0 0 0 526.9036 417.0527
  L 526.9343 414.5328
  Z"
/>
<rect fill="#d6ac72" x="-14.14" y="-13.95" transform="translate(512.78,415.62) rotate(0.7)" width="28.28" height="27.90" rx="12.69"/>
<path fill="#303642" d="
  M 385.45 483.60
  Q 376.63 479.45 369.43 470.40
  A 0.38 0.38 0.0 0 1 369.73 469.78
  L 442.68 469.32
  Q 444.03 469.32 443.38 470.50
  C 441.93 473.13 439.75 475.17 437.48 477.13
  C 431.24 482.50 424.77 485.92 416.31 487.01
  C 405.74 488.38 394.78 488.00 385.45 483.60
  Z"
/>
<path fill="#303642" d="
  M 626.38 487.33
  C 608.55 489.54 593.16 484.24 581.85 470.26
  A 0.53 0.53 0.0 0 1 582.26 469.40
  L 655.93 469.37
  A 0.35 0.35 0.0 0 1 656.21 469.93
  Q 645.05 485.03 626.38 487.33
  Z"
/>
<path fill="#fcfcfb" d="
  M 690.28 601.22
  L 655.56 601.23
  Q 654.64 601.23 654.63 600.31
  L 654.56 589.43
  A 1.02 1.01 -0.3 0 1 655.57 588.42
  L 710.35 588.28
  A 0.41 0.41 0.0 0 1 710.76 588.69
  L 710.75 596.60
  Q 710.74 597.55 710.13 598.29
  L 675.09 640.37
  A 0.58 0.57 19.8 0 0 675.54 641.31
  L 710.86 641.26
  A 0.85 0.85 0.0 0 1 711.72 642.11
  L 711.73 652.98
  A 0.46 0.46 0.0 0 1 711.27 653.44
  L 653.43 653.58
  Q 652.79 653.58 652.78 652.94
  C 652.76 650.20 652.29 646.13 654.17 643.99
  Q 672.11 623.60 690.51 601.71
  A 0.30 0.30 0.0 0 0 690.28 601.22
  Z"
/>
<path fill="#fcfcfb" d="
  M 773.28 641.37
  L 743.66 641.31
  A 0.31 0.31 0.0 0 0 743.37 641.50
  L 738.44 653.25
  A 0.31 0.31 0.0 0 1 738.16 653.44
  L 722.65 653.58
  A 0.31 0.31 0.0 0 1 722.36 653.13
  L 753.11 588.35
  A 0.31 0.31 0.0 0 1 753.40 588.17
  L 765.16 588.39
  A 0.31 0.31 0.0 0 1 765.44 588.57
  L 794.78 653.29
  A 0.31 0.31 0.0 0 1 794.50 653.73
  L 779.14 653.82
  A 0.31 0.31 0.0 0 1 778.86 653.63
  L 773.56 641.56
  A 0.31 0.31 0.0 0 0 773.28 641.37
  Z
  M 748.16 629.22
  A 0.32 0.32 0.0 0 0 748.45 629.67
  L 768.68 629.81
  A 0.32 0.32 0.0 0 0 768.97 629.37
  L 759.02 605.94
  A 0.32 0.32 0.0 0 0 758.44 605.94
  L 748.16 629.22
  Z"
/>
<rect fill="#fcfcfb" x="234.83" y="588.57" width="15.44" height="65.20" rx="0.75"/>
<path fill="#fcfcfb" d="
  M 322.48 626.45
  L 322.52 589.10
  A 0.64 0.63 90.0 0 1 323.15 588.46
  L 337.30 588.51
  A 0.54 0.54 0.0 0 1 337.83 589.05
  L 337.91 652.93
  Q 337.91 653.77 337.07 653.76
  L 327.35 653.72
  A 3.35 3.31 68.2 0 1 324.96 652.68
  Q 321.51 649.04 318.35 645.36
  Q 306.42 631.46 293.47 614.92
  Q 292.83 614.10 292.83 615.14
  L 292.80 652.27
  Q 292.80 653.60 291.47 653.60
  L 278.62 653.67
  Q 277.55 653.68 277.55 652.61
  L 277.82 589.10
  A 0.58 0.57 -0.0 0 1 278.40 588.53
  L 288.40 588.58
  Q 289.89 588.59 290.84 589.74
  L 321.51 626.80
  Q 322.48 627.96 322.48 626.45
  Z"
/>
<path fill="#fcfcfb" d="
  M 365.18 589.42
  A 0.78 0.78 0.0 0 1 365.96 588.64
  L 397.27 588.58
  A 34.35 31.12 -0.1 0 1 431.68 619.64
  L 431.68 622.54
  A 34.35 31.12 -0.1 0 1 397.39 653.72
  L 366.08 653.78
  A 0.78 0.78 0.0 0 1 365.30 653.00
  L 365.18 589.42
  Z
  M 380.70 601.97
  L 380.76 640.53
  A 0.85 0.85 0.0 0 0 381.62 641.38
  L 396.42 641.35
  A 20.05 19.35 -0.1 0 0 416.43 621.97
  L 416.43 620.41
  A 20.05 19.35 -0.1 0 0 396.34 601.09
  L 381.54 601.12
  A 0.85 0.85 0.0 0 0 380.70 601.97
  Z"
/>
<path fill="#fcfcfb" d="
  M 468.13 626.85
  L 468.01 640.99
  A 0.59 0.59 0.0 0 0 468.61 641.59
  L 504.36 641.52
  A 0.59 0.59 0.0 0 1 504.95 642.11
  L 504.99 653.06
  A 0.59 0.59 0.0 0 1 504.40 653.65
  L 453.66 653.75
  A 0.59 0.59 0.0 0 1 453.07 653.16
  L 452.97 589.35
  A 0.59 0.59 0.0 0 1 453.56 588.76
  L 502.80 588.47
  A 0.59 0.59 0.0 0 1 503.39 589.07
  L 503.28 600.16
  A 0.59 0.59 0.0 0 1 502.69 600.74
  L 468.79 600.95
  A 0.59 0.59 0.0 0 0 468.20 601.54
  L 468.24 613.97
  A 0.59 0.59 0.0 0 0 468.83 614.56
  L 497.30 614.49
  A 0.59 0.59 0.0 0 1 497.89 615.09
  L 497.76 625.51
  A 0.59 0.59 0.0 0 1 497.17 626.09
  L 468.71 626.27
  A 0.59 0.59 0.0 0 0 468.13 626.85
  Z"
/>
<rect fill="#fcfcfb" x="615.42" y="588.52" width="15.48" height="65.18" rx="0.51"/>
<path fill="#fcfcfb" d="
  M 573.24 626.73
  L 573.25 589.23
  Q 573.25 588.71 573.77 588.71
  L 587.75 588.77
  A 0.73 0.73 0.0 0 1 588.48 589.50
  L 588.52 653.11
  A 0.64 0.63 90.0 0 1 587.89 653.75
  L 577.88 653.78
  A 2.71 2.68 69.6 0 1 575.83 652.83
  L 544.26 615.58
  Q 543.25 614.38 543.27 615.95
  L 543.65 653.10
  Q 543.66 653.76 543.00 653.76
  L 528.99 653.81
  A 0.46 0.46 0.0 0 1 528.53 653.41
  Q 528.28 651.34 528.29 649.19
  Q 528.32 619.25 528.32 589.15
  Q 528.32 588.73 528.74 588.73
  L 539.26 588.73
  A 1.34 1.34 0.0 0 1 540.26 589.18
  Q 556.38 607.24 572.55 626.98
  Q 573.24 627.82 573.24 626.73
  Z"
/>
<path fill="#303642" d="
  M 380.70 601.97
  A 0.85 0.85 0.0 0 1 381.54 601.12
  L 396.34 601.09
  A 20.05 19.35 -0.1 0 1 416.43 620.41
  L 416.43 621.97
  A 20.05 19.35 -0.1 0 1 396.42 641.35
  L 381.62 641.38
  A 0.85 0.85 0.0 0 1 380.76 640.53
  L 380.70 601.97
  Z"
/>
<path fill="#303642" d="
  M 748.16 629.22
  L 758.44 605.94
  A 0.32 0.32 0.0 0 1 759.02 605.94
  L 768.97 629.37
  A 0.32 0.32 0.0 0 1 768.68 629.81
  L 748.45 629.67
  A 0.32 0.32 0.0 0 1 748.16 629.22
  Z"
/>
<path fill="#d6ac72" d="
  M 555.49 705.27
  C 548.39 704.82 543.86 712.91 549.83 718.00
  Q 553.62 721.22 557.52 718.05
  Q 558.77 717.04 560.25 717.68
  L 561.78 718.35
  Q 563.51 719.10 562.24 720.50
  C 557.65 725.60 549.20 724.68 544.84 719.86
  C 540.18 714.71 541.79 706.13 547.75 702.66
  Q 552.91 699.66 558.54 701.40
  Q 562.10 702.51 562.22 705.79
  Q 562.28 707.39 560.72 707.70
  C 559.13 708.02 557.43 705.39 555.49 705.27
  Z"
/>
<path fill="#d6ac72" d="
  M 602.94 718.78
  Q 599.31 718.81 595.39 718.88
  C 591.41 718.96 593.22 725.26 587.23 723.39
  A 0.62 0.61 21.1 0 1 586.85 722.54
  Q 591.53 712.42 595.83 702.55
  Q 596.78 700.37 599.34 700.76
  Q 599.85 700.84 600.17 701.24
  Q 601.74 703.22 602.91 705.74
  Q 606.91 714.37 610.22 722.43
  Q 610.80 723.86 609.26 723.95
  L 607.32 724.07
  A 1.96 1.94 -13.3 0 1 605.43 722.91
  L 603.87 719.38
  Q 603.61 718.77 602.94 718.78
  Z
  M 595.93 714.33
  A 0.49 0.49 0.0 0 0 596.38 715.00
  L 601.09 715.04
  A 0.49 0.49 0.0 0 0 601.54 714.34
  L 598.93 708.77
  A 0.49 0.49 0.0 0 0 598.03 708.80
  L 595.93 714.33
  Z"
/>
<path fill="#d6ac72" d="
  M 471.7978 712.7492
  A 11.94 11.45 1.1 0 1 459.6402 723.9679
  A 11.94 11.45 1.1 0 1 447.9222 712.2908
  A 11.94 11.45 1.1 0 1 460.0798 701.0721
  A 11.94 11.45 1.1 0 1 471.7978 712.7492
  Z
  M 466.7824 710.8398
  A 7.07 6.75 -12.5 0 0 458.4190 705.7800
  A 7.07 6.75 -12.5 0 0 452.9776 713.9002
  A 7.07 6.75 -12.5 0 0 461.3410 718.9600
  A 7.07 6.75 -12.5 0 0 466.7824 710.8398
  Z"
/>
<path fill="#d6ac72" d="
  M 504.46 707.79
  C 501.51 711.00 502.03 716.55 506.15 718.64
  Q 510.44 720.81 513.89 717.82
  Q 514.36 717.41 514.99 717.44
  Q 516.56 717.50 517.44 718.96
  Q 517.74 719.46 517.55 720.02
  C 516.07 724.31 508.94 724.17 505.39 723.02
  C 495.53 719.82 494.82 706.84 503.98 702.39
  C 507.88 700.50 513.21 700.48 516.61 703.57
  Q 517.97 704.80 517.18 706.45
  L 516.89 707.05
  A 1.28 1.28 0.0 0 1 514.89 707.44
  C 512.02 704.89 507.13 704.91 504.46 707.79
  Z"
/>
<path fill="#d6ac72" d="
  M 703.06 716.61
  A 1.97 1.97 0.0 0 0 701.51 715.20
  Q 699.28 714.81 696.96 714.45
  C 690.84 713.51 689.23 705.55 694.60 702.52
  Q 698.86 700.12 704.92 701.77
  A 2.78 2.78 0.0 0 1 706.97 704.36
  L 706.99 704.75
  Q 707.07 706.96 704.97 706.26
  Q 701.71 705.18 698.80 705.42
  A 2.21 2.20 1.1 0 0 696.78 707.36
  Q 696.48 709.85 698.99 710.35
  C 702.17 710.99 708.20 712.29 708.37 716.56
  C 708.73 725.33 696.92 724.41 692.07 722.09
  Q 690.11 721.15 691.54 719.51
  L 691.82 719.19
  Q 693.40 717.38 695.43 718.66
  Q 698.33 720.47 701.16 719.65
  Q 703.69 718.91 703.06 716.61
  Z"
/>
<path fill="#d6ac72" d="
  M 414.64 716.75
  A 0.35 0.34 -72.5 0 0 415.04 716.54
  L 420.25 702.75
  Q 420.71 701.53 422.01 701.53
  L 424.51 701.51
  Q 425.98 701.50 425.42 702.86
  L 417.21 722.69
  Q 417.02 723.15 416.52 723.20
  C 414.66 723.38 411.40 723.69 410.51 721.59
  Q 405.48 709.75 402.64 702.37
  Q 402.27 701.40 403.31 701.34
  L 406.20 701.19
  Q 407.15 701.14 407.58 701.98
  Q 411.29 709.18 414.16 716.33
  Q 414.29 716.66 414.64 716.75
  Z"
/>
<path fill="#d6ac72" d="
  M 638.59 709.08
  C 635.96 714.43 639.06 719.93 645.22 719.58
  C 648.62 719.39 648.33 714.42 651.16 714.78
  A 2.49 2.48 1.7 0 1 653.33 717.07
  C 653.90 725.16 642.83 724.84 638.24 722.46
  C 632.37 719.41 631.22 710.00 635.26 705.06
  Q 639.45 699.94 647.42 701.54
  Q 650.37 702.12 652.03 703.93
  Q 653.19 705.18 652.28 706.63
  Q 652.02 707.05 651.61 707.34
  A 1.79 1.79 0.0 0 1 649.45 707.29
  C 646.13 704.65 640.61 704.95 638.59 709.08
  Z"
/>
<path fill="#d6ac72" d="
  M 358.38 702.68
  A 1.23 1.23 0.0 0 1 359.61 701.45
  L 369.26 701.47
  A 11.34 10.89 0.1 0 1 380.58 712.38
  L 380.58 712.52
  A 11.34 10.89 0.1 0 1 369.22 723.39
  L 359.57 723.37
  A 1.23 1.23 0.0 0 1 358.34 722.14
  L 358.38 702.68
  Z
  M 363.16 706.97
  L 363.22 717.89
  A 1.14 1.14 0.0 0 0 364.36 719.03
  L 368.80 719.00
  A 6.48 6.28 -0.3 0 0 375.25 712.69
  L 375.25 712.05
  A 6.48 6.28 -0.3 0 0 368.74 705.80
  L 364.30 705.83
  A 1.14 1.14 0.0 0 0 363.16 706.97
  Z"
/>
<path fill="#d6ac72" d="
  M 327.96 718.80
  Q 324.50 718.58 320.08 718.69
  C 317.84 718.75 317.40 720.78 316.74 722.45
  Q 316.53 722.97 315.97 722.96
  L 312.25 722.86
  A 0.58 0.57 -75.1 0 1 311.76 722.01
  Q 316.69 712.99 320.44 702.89
  Q 320.72 702.14 321.49 701.94
  Q 323.27 701.49 325.13 701.99
  A 1.65 1.63 -4.5 0 1 326.21 702.90
  L 334.89 721.97
  Q 335.52 723.35 334.00 723.42
  L 332.75 723.48
  Q 331.27 723.54 330.57 722.24
  L 329.11 719.54
  A 1.41 1.41 0.0 0 0 327.96 718.80
  Z
  M 320.42 714.39
  A 0.63 0.63 0.0 0 0 321.01 715.24
  L 325.76 715.23
  A 0.63 0.63 0.0 0 0 326.35 714.38
  L 323.96 707.94
  A 0.63 0.63 0.0 0 0 322.78 707.94
  L 320.42 714.39
  Z"
/>
<ellipse fill="#303642" cx="0.00" cy="0.00" transform="translate(459.88,712.37) rotate(-12.5)" rx="7.07" ry="6.75"/>
<path fill="#303642" d="
  M 363.16 706.97
  A 1.14 1.14 0.0 0 1 364.30 705.83
  L 368.74 705.80
  A 6.48 6.28 -0.3 0 1 375.25 712.05
  L 375.25 712.69
  A 6.48 6.28 -0.3 0 1 368.80 719.00
  L 364.36 719.03
  A 1.14 1.14 0.0 0 1 363.22 717.89
  L 363.16 706.97
  Z"
/>
<path fill="#303642" d="
  M 320.42 714.39
  L 322.78 707.94
  A 0.63 0.63 0.0 0 1 323.96 707.94
  L 326.35 714.38
  A 0.63 0.63 0.0 0 1 325.76 715.23
  L 321.01 715.24
  A 0.63 0.63 0.0 0 1 320.42 714.39
  Z"
/>
<path fill="#303642" d="
  M 595.93 714.33
  L 598.03 708.80
  A 0.49 0.49 0.0 0 1 598.93 708.77
  L 601.54 714.34
  A 0.49 0.49 0.0 0 1 601.09 715.04
  L 596.38 715.00
  A 0.49 0.49 0.0 0 1 595.93 714.33
  Z"
/>
</svg>
